<?xml version="1.0" encoding="UTF-8"?>
<!DOCTYPE svg PUBLIC "-//W3C//DTD SVG 1.1//EN" "http://www.w3.org/Graphics/SVG/1.1/DTD/svg11.dtd">
<!-- Creator: CorelDRAW 2017 -->
<svg xmlns="http://www.w3.org/2000/svg" xml:space="preserve" width="210mm" height="297mm" version="1.1" style="shape-rendering:geometricPrecision; text-rendering:geometricPrecision; image-rendering:optimizeQuality; fill-rule:evenodd; clip-rule:evenodd"
viewBox="0 0 21000 29700"
 xmlns:xlink="http://www.w3.org/1999/xlink">
 <defs>
  <style type="text/css">
   <![CDATA[
    .fil15 {fill:none}
    .fil12 {fill:#035E1B}
    .fil6 {fill:#087826}
    .fil7 {fill:#18963A}
    .fil3 {fill:#332D2A}
    .fil2 {fill:#3ABA5C}
    .fil11 {fill:#4D4441}
    .fil1 {fill:#5BE37F}
    .fil5 {fill:#B54006}
    .fil4 {fill:#D65311}
    .fil0 {fill:#DCEEFA}
    .fil9 {fill:#E86625}
    .fil10 {fill:#F5A40E}
    .fil8 {fill:#FFBB00}
    .fil13 {fill:white}
    .fil14 {fill:white;fill-rule:nonzero}
   ]]>
  </style>
 </defs>
 <g id="Layer_x0020_1">
  <metadata id="CorelCorpID_0Corel-Layer"/>
  <g id="_2582260400448">
   <path class="fil0" d="M9642.68 5025.61c3073.96,0 5565.89,2491.94 5565.89,5565.9 0,1573.33 -653,2993.98 -1702.52,4006.29l-7726.75 0c-1049.52,-1012.31 -1702.52,-2432.96 -1702.52,-4006.29 0,-3073.96 2491.94,-5565.9 5565.9,-5565.9z"/>
   <ellipse class="fil1" cx="9524.91" cy="14597.8" rx="5448.13" ry="314.92"/>
   <path class="fil1" d="M7139.06 12563.15l2947.53 0 0 2034.65 -2947.53 0c-559.53,0 -1017.32,-457.8 -1017.32,-1017.33l0 0c0,-559.53 457.79,-1017.32 1017.32,-1017.32z"/>
   <path class="fil2" d="M7440.48 12764.07l2646.12 0 0 816.4 -2646.12 0c-224.51,0 -408.19,-183.68 -408.19,-408.19l0 -0.02c0,-224.51 183.68,-408.19 408.19,-408.19z"/>
   <path class="fil2" d="M10086.6 13318.48l0 1279.32 -448.04 0c-164.62,-131.6 -270.09,-334.06 -270.09,-561.2 0,-396.61 321.52,-718.12 718.13,-718.12z"/>
   <rect class="fil3" x="15063.78" y="11792.8" width="738.92" height="85.49"/>
   <polygon class="fil4" points="12459.19,8209.8 12290.47,9914.88 11900.96,10075.9 11293.05,8041.26 "/>
   <path class="fil5" d="M11696.85 9392.74l-281.49 -942.14 676.61 -188.34 253 44.15 -159.93 123.07c-299.93,230.82 -479.38,584.9 -488.19,963.26z"/>
   <polygon class="fil6" points="11738.11,6312.58 12636.94,8187.43 11153.59,8791.88 "/>
   <path class="fil7" d="M9207.02 8898.78l2128.53 518.34 501.8 3865.34 -115.8 347.59 154.4 264.69 -760.98 617.6 -165.43 -441.14 -785.75 -3228.2 -923.68 2836.68 -110.28 198.51 77.19 286.75 -1102.85 0 176.45 -386 -176.45 -562.46c306.84,-1312.02 655.87,-2362.27 949.88,-3592.66 56.16,-235.05 100.62,-473.46 152.97,-725.04z"/>
   <polygon class="fil8" points="9229.09,7525.72 8947.87,8711.3 8710.78,8998.04 9054.05,9623.82 11374.48,9717.01 11677.45,9301.33 11522.64,8809.69 12013.82,7470.58 11738.11,6312.58 10651.82,5976.21 "/>
   <path class="fil9" d="M11580.89 6263.9l-2.34 -0.73c-26.18,-8.11 -45.63,-25.06 -57.24,-49.89 -11.62,-24.83 -12.15,-50.62 -1.59,-75.92l285.1 -682.53 -595.54 -223.34 -464.26 773.58c-4.79,35.09 -7.32,71.27 -7.32,108.26 0,323.99 191.95,586.63 428.74,586.63 198.74,0 365.87,-185.04 414.45,-436.06z"/>
   <path class="fil4" d="M11580.89 6263.9l-2.34 -0.73c-26.18,-8.11 -45.63,-25.06 -57.24,-49.89 -11.62,-24.83 -12.15,-50.62 -1.59,-75.92l285.1 -682.53 -595.54 -223.34 -55.69 92.8 0 620.45c0,230.89 161.72,425.83 377.48,477.2 21.94,-48.44 38.89,-101.56 49.82,-158.04z"/>
   <polygon class="fil10" points="10556.88,6250.46 10362.31,7423.71 10875.09,8611.94 11432.03,8195.7 11029.49,7846.61 12013.82,7470.58 11522.64,8809.69 10362.31,8898.78 9351.78,8429.48 8947.87,8711.3 9070.27,8195.32 "/>
   <polygon class="fil10" points="8710.78,8998.04 9445.09,9449.69 11074.66,9671.35 9463.47,9237.9 11153.59,9424.38 11677.45,9301.33 11374.48,9717.01 9069.17,9624.43 "/>
   <polygon class="fil9" points="10166.56,7652.56 10740.04,9075.24 10470.26,9206.41 9129.48,7926.83 "/>
   <polygon class="fil7" points="10177.55,5899.01 8710.78,7045.99 8571.21,7470.09 8865.18,8429.48 10166.56,7652.56 10155.53,7409.92 10651.82,5976.21 "/>
   <path class="fil4" d="M10166.56 7652.56l-231.8 194.05c-205.02,171.64 -268.31,460.05 -154,701.77l-428.98 -409.4 814.78 -486.42z"/>
   <path class="fil6" d="M8752.04 10786.08l843.76 -797.83 1659.81 -184.72 183.35 410.22 -64.48 -496.74 -2320.43 -93.19 -302.01 1162.26zm1411.75 56.92l613.04 -352.57 -157.89 584.12 178.93 1019.75 295.05 138.25 -258 409.58 89.75 1326.89 -760.88 -3126.02zm1673.56 2439.46l-606.58 320.02 -13.78 176.46 -173.7 281.23 678.26 -430.12 115.8 -347.59zm-3733.18 -65.98l567.97 330.86 567.97 132.34 -110.28 198.51 -170.93 -97.87 -195.76 64.79 -482.52 -66.17 -176.45 -562.46z"/>
   <polygon class="fil6" points="10155.53,7409.92 9129.48,7423.71 9865.99,7241.73 9182.22,7117.67 10017.64,6993.59 10556.88,6250.46 "/>
   <rect class="fil11" transform="matrix(0.231631 -0.466718 0.562991 0.279412 9569.48 9002.68)" width="444.5" height="9387.84"/>
   <rect class="fil2" transform="matrix(0.231631 -0.466718 0.562991 0.279412 12726.6 10674.2)" width="804.33" height="2317.76"/>
   <polygon class="fil12" points="12013.82,7470.58 12020.12,8438.78 11595.17,8611.94 "/>
   <path class="fil12" d="M11804.26 13886.46c392.86,0 711.34,318.47 711.34,711.34l-1422.68 0c0,-392.87 318.48,-711.34 711.34,-711.34z"/>
   <path class="fil12" d="M8628.02 13886.46c392.86,0 711.34,318.47 711.34,711.34l-1422.68 0c0,-392.87 318.48,-711.34 711.34,-711.34z"/>
   <circle class="fil4" cx="12091.98" cy="10075.9" r="414.53"/>
   <circle class="fil9" cx="10362.3" cy="9206.41" r="414.53"/>
   <path class="fil7" d="M14883.85 11359.91l621.78 0c189.44,0 343.94,154.51 343.94,343.94l0 110.99 -1309.65 0 0 -110.99c0,-189.43 154.5,-343.94 343.93,-343.94z"/>
   <path class="fil6" d="M15227.79 11814.84l-687.87 0 0 -110.99c0,-189.43 154.5,-343.94 343.93,-343.94 189.44,0 343.94,154.51 343.94,343.94l0 110.99z"/>
   <path class="fil9" d="M11071.53 4819.22l980.9 0 0 819.48c0,269.75 -220.69,490.44 -490.44,490.44l-0.02 0c-269.75,0 -490.44,-220.69 -490.44,-490.44l0 -819.48z"/>
   <path class="fil13" d="M11887.45 5733.76c-7.19,105.71 -95.89,189.98 -203.34,189.98l0 0c-107.45,0 -196.16,-84.27 -203.34,-189.98l406.68 0z"/>
   <path class="fil11" d="M12052.43 5311.47l137.01 -492.25c34.25,-123.07 -1.89,-255.01 -94.09,-343.44 -92.19,-88.43 -225.52,-119.04 -347.06,-79.69l-594.7 88.23c-70.72,10.5 -131.27,56.19 -160.75,121.32l-77.2 66.17c-72.86,62.44 -99.24,163.58 -66.18,253.65l95.44 746.55 348.15 -355.03c49.44,-50.41 113.94,19.72 184.39,15.08l-76.55 -395.57 475.23 44.12c58.64,5.45 117.66,5.45 176.31,0l0 330.86z"/>
   <ellipse class="fil9" transform="matrix(0.521036 -0 0.0737135 0.521036 11183.7 5315.6)" rx="282.29" ry="473.6"/>
   <circle class="fil11" cx="10086.6" cy="14036.6" r="561.19"/>
   <circle class="fil2" cx="10086.6" cy="14036.6" r="314.92"/>
   <path class="fil14" d="M9574.27 8993.04l-622.98 -309.98c-201.49,-76.31 -423.58,-76.91 -633.43,-19.33 -225.16,61.77 -435.36,190.05 -591.08,363.6 -150.69,167.95 -241.52,373.75 -268.7,587.58 -26.94,212.05 8.82,432.27 110.95,631.55l848.36 1405.36c175.71,291.08 264.37,619.08 265.79,947.78 1.43,328.55 -84.39,657.26 -257.6,949.91 -173.27,292.77 -420.14,526.2 -708.79,682.99 -287.47,156.16 -616.15,236.17 -954.6,222.98l0 0.26 -1135.95 0c-128.75,0 -246.72,-49.9 -334.88,-131.98 -88.1,-82.02 -146.24,-196.18 -155.43,-324.76 -9.19,-128.43 32.1,-249.58 107.58,-343.25 75.55,-93.75 185.3,-159.92 312.93,-178.27l8.48 -1.22 562.16 0c69.47,0 69.46,208.42 0,208.42l-549.03 0c-70.29,12.05 -130.61,49.31 -172.52,101.33 -43.52,54 -67.32,124 -62,198.33 5.3,74.17 38.78,139.97 89.49,187.18 50.63,47.14 118.69,75.8 193.22,75.8l1135.95 0 4.07 0.41c302.08,12.43 595.23,-58.54 851.21,-197.59 255.96,-139.03 475.03,-346.3 629,-606.46 154.05,-260.28 230.38,-552.07 229.11,-843.27 -1.26,-291.07 -80.14,-582.13 -236.47,-841.12l-849.21 -1406.76 -3.26 -6.11c-123.59,-238.3 -166.93,-502.66 -134.53,-757.56 32.38,-254.79 140.55,-499.93 319.99,-699.92 182.31,-203.2 428.12,-353.3 691.21,-425.49 253.18,-69.47 523.18,-67.23 769.7,28.45l7.24 2.81 626.04 312.92 -92.02 185.41z"/>
  </g>
  <rect class="fil15" x="1963.18" y="3645.96" width="16000" height="12000"/>
 </g>
</svg>
